<svg width="50" height="50" viewBox="0 0 50 50" fill="none" xmlns="http://www.w3.org/2000/svg">
<path d="M37.5003 31.25H33.3337V35.4167H37.5003M37.5003 22.9167H33.3337V27.0833H37.5003M41.667 39.5833H25.0003V35.4167H29.167V31.25H25.0003V27.0833H29.167V22.9167H25.0003V18.75H41.667M20.8337 14.5833H16.667V10.4167H20.8337M20.8337 22.9167H16.667V18.75H20.8337M20.8337 31.25H16.667V27.0833H20.8337M20.8337 39.5833H16.667V35.4167H20.8337M12.5003 14.5833H8.33366V10.4167H12.5003M12.5003 22.9167H8.33366V18.75H12.5003M12.5003 31.25H8.33366V27.0833H12.5003M12.5003 39.5833H8.33366V35.4167H12.5003M25.0003 14.5833V6.25H4.16699V43.75H45.8337V14.5833H25.0003Z" fill="#F4F4F4"/>
</svg>
