<svg width="50" height="50" viewBox="0 0 50 50" fill="none" xmlns="http://www.w3.org/2000/svg">
<path d="M45.8337 15.6982V35.417C45.8338 37.0112 45.2247 38.5451 44.131 39.705C43.0373 40.8649 41.5418 41.5631 39.9503 41.6566L39.5837 41.667H10.417C8.8228 41.6671 7.28884 41.058 6.12895 39.9643C4.96906 38.8707 4.27093 37.3751 4.17741 35.7837L4.16699 35.417V15.6982L23.8441 28.817L24.0857 28.9545C24.3705 29.0936 24.6833 29.166 25.0003 29.166C25.3173 29.166 25.6301 29.0936 25.9149 28.9545L26.1566 28.817L45.8337 15.6982Z" fill="#F4F4F4"/>
<path d="M39.5833 8.33301C41.8333 8.33301 43.8063 9.52051 44.9062 11.3059L25 24.5768L5.09375 11.3059C5.6161 10.4575 6.33378 9.74634 7.18689 9.23172C8.04 8.7171 9.00382 8.41396 9.99792 8.34759L10.4167 8.33301H39.5833Z" fill="#F4F4F4"/>
</svg>
