<svg width="50" height="48" viewBox="0 0 50 48" fill="none" xmlns="http://www.w3.org/2000/svg">
<path d="M40.3391 19.5494C40.5155 19.5433 40.6914 19.5728 40.8563 19.6362C41.0211 19.6995 41.1715 19.7954 41.2985 19.9181C41.4255 20.0408 41.5265 20.1878 41.5955 20.3503C41.6645 20.5129 41.7 20.6877 41.7 20.8643C41.7 21.0408 41.6645 21.2156 41.5955 21.3782C41.5265 21.5407 41.4255 21.6877 41.2985 21.8104C41.1715 21.9331 41.0211 22.029 40.8563 22.0923C40.6914 22.1557 40.5155 22.1852 40.3391 22.1791H36.6844V24.5229H40.3391C40.5166 24.5142 40.6941 24.5417 40.8607 24.6036C41.0273 24.6656 41.1795 24.7608 41.3082 24.8833C41.437 25.0059 41.5394 25.1534 41.6095 25.3168C41.6795 25.4801 41.7156 25.656 41.7156 25.8338C41.7156 26.0115 41.6795 26.1874 41.6095 26.3508C41.5394 26.5142 41.437 26.6617 41.3082 26.7842C41.1795 26.9068 41.0273 27.002 40.8607 27.064C40.6941 27.1259 40.5166 27.1534 40.3391 27.1447H35.375C35.028 27.1435 34.6956 27.0049 34.4505 26.7592C34.2054 26.5135 34.0676 26.1808 34.0672 25.8338V15.8963C34.0672 15.1729 34.6531 14.5791 35.375 14.5791H40.3484C40.6858 14.5965 41.0036 14.7431 41.2359 14.9884C41.4682 15.2338 41.5972 15.559 41.5962 15.8969C41.5952 16.2347 41.4642 16.5592 41.2305 16.8032C40.9967 17.0471 40.6781 17.1918 40.3406 17.2072H36.6859V19.551L40.3391 19.5494ZM32.3172 25.8322C32.3143 26.1802 32.1741 26.513 31.9272 26.7582C31.6802 27.0034 31.3464 27.1412 30.9984 27.1416C30.7924 27.1436 30.5887 27.0976 30.4035 27.0073C30.2182 26.917 30.0566 26.7849 29.9312 26.6213L24.8453 19.7041V25.8307C24.8453 26.1783 24.7072 26.5118 24.4613 26.7576C24.2155 27.0035 23.8821 27.1416 23.5344 27.1416C23.1867 27.1416 22.8533 27.0035 22.6074 26.7576C22.3616 26.5118 22.2234 26.1783 22.2234 25.8307V15.8932C22.2234 15.3322 22.5906 14.8291 23.1187 14.6494C23.2492 14.6033 23.3867 14.5806 23.525 14.5822C23.9312 14.5822 24.3062 14.8025 24.5578 15.1119L29.6844 22.0447V15.8932C29.6844 15.1697 30.2703 14.576 30.9953 14.576C31.7203 14.576 32.3141 15.1697 32.3141 15.8932L32.3172 25.8322ZM20.3547 25.8322C20.353 26.1808 20.2133 26.5144 19.9661 26.7601C19.719 27.0059 19.3845 27.1436 19.0359 27.1432C18.69 27.1403 18.3592 27.0009 18.1155 26.7555C17.8717 26.51 17.7348 26.1782 17.7344 25.8322V15.8947C17.7344 15.1713 18.3203 14.5775 19.0453 14.5775C19.7688 14.5775 20.3563 15.1713 20.3563 15.8947L20.3547 25.8322ZM15.2188 27.1432H10.2453C9.89716 27.1424 9.56338 27.0042 9.31647 26.7588C9.06955 26.5133 8.92944 26.1804 8.92656 25.8322V15.8947C8.92656 15.1713 9.52031 14.5775 10.2453 14.5775C10.9703 14.5775 11.5562 15.1713 11.5562 15.8947V24.5213H15.2188C15.5664 24.5213 15.8999 24.6594 16.1457 24.9053C16.3916 25.1511 16.5297 25.4845 16.5297 25.8322C16.5297 26.1799 16.3916 26.5134 16.1457 26.7592C15.8999 27.0051 15.5664 27.1432 15.2188 27.1432ZM50 20.4838C50 9.29473 38.7766 0.188477 25 0.188477C11.2234 0.188477 0 9.29473 0 20.4838C0 30.5104 8.89531 38.9088 20.9062 40.5041C21.7203 40.6744 22.8266 41.0416 23.1125 41.7338C23.3641 42.3588 23.275 43.3275 23.1938 43.9885L22.8516 46.1119C22.7531 46.7385 22.3469 48.5791 25.0328 47.4557C27.7266 46.3322 39.4453 38.9604 44.6937 32.9197C48.2828 28.99 50 24.9525 50 20.4838Z" fill="#F4F4F4"/>
</svg>
