<svg width="50" height="50" viewBox="0 0 50 50" fill="none" xmlns="http://www.w3.org/2000/svg">
<path d="M24.9997 25.0003C26.1455 25.0003 27.1268 24.592 27.9434 23.7753C28.7601 22.9587 29.1677 21.9781 29.1663 20.8337C29.1663 19.6878 28.758 18.7066 27.9413 17.8899C27.1247 17.0732 26.1441 16.6656 24.9997 16.667C23.8538 16.667 22.8726 17.0753 22.0559 17.892C21.2393 18.7087 20.8316 19.6892 20.833 20.8337C20.833 21.9795 21.2413 22.9607 22.058 23.7774C22.8747 24.5941 23.8552 25.0017 24.9997 25.0003ZM24.9997 45.8337C19.4094 41.0767 15.2344 36.6587 12.4747 32.5795C9.71495 28.5003 8.3344 24.7239 8.33301 21.2503C8.33301 16.042 10.0087 11.8927 13.3601 8.80241C16.7115 5.71213 20.5913 4.16699 24.9997 4.16699C29.4094 4.16699 33.2899 5.71213 36.6413 8.80241C39.9927 11.8927 41.6677 16.042 41.6663 21.2503C41.6663 24.7225 40.2858 28.4989 37.5247 32.5795C34.7636 36.66 30.5886 41.0781 24.9997 45.8337Z" fill="url(#paint0_linear_2317_3936)"/>
<defs>
<linearGradient id="paint0_linear_2317_3936" x1="29.7108" y1="4.41437" x2="22.4308" y2="45.3771" gradientUnits="userSpaceOnUse">
<stop stop-color="#8BE1F5"/>
<stop offset="0.0001" stop-color="#ACEFFF"/>
<stop offset="1" stop-color="#42DBFF"/>
</linearGradient>
</defs>
</svg>
