<svg width="23" height="22" viewBox="0 0 23 22" fill="none" xmlns="http://www.w3.org/2000/svg">
<path d="M11.4997 0.333008C12.9142 0.333008 14.2707 0.894911 15.2709 1.8951C16.2711 2.8953 16.833 4.25185 16.833 5.66634C16.833 7.08083 16.2711 8.43738 15.2709 9.43758C14.2707 10.4378 12.9142 10.9997 11.4997 10.9997C10.0852 10.9997 8.72863 10.4378 7.72844 9.43758C6.72824 8.43738 6.16634 7.08083 6.16634 5.66634C6.16634 4.25185 6.72824 2.8953 7.72844 1.8951C8.72863 0.894911 10.0852 0.333008 11.4997 0.333008ZM11.4997 13.6663C17.393 13.6663 22.1663 16.053 22.1663 18.9997V21.6663H0.833008V18.9997C0.833008 16.053 5.60634 13.6663 11.4997 13.6663Z" fill="url(#paint0_linear_5220_2918)"/>
<defs>
<linearGradient id="paint0_linear_5220_2918" x1="14.5148" y1="0.459666" x2="11.4997" y2="21.6663" gradientUnits="userSpaceOnUse">
<stop stop-color="#8BE1F5"/>
<stop offset="0.0001" stop-color="#ACEFFF"/>
<stop offset="1" stop-color="#42DBFF"/>
</linearGradient>
</defs>
</svg>
