<svg width="44" height="50" viewBox="0 0 44 50" fill="none" xmlns="http://www.w3.org/2000/svg">
<g clip-path="url(#clip0_2867_533)">
<path d="M22.0007 21.6663C27.8917 21.6663 32.6673 16.8907 32.6673 10.9997C32.6673 5.10864 27.8917 0.333008 22.0007 0.333008C16.1096 0.333008 11.334 5.10864 11.334 10.9997C11.334 16.8907 16.1096 21.6663 22.0007 21.6663Z" fill="url(#paint0_linear_2867_533)"/>
<path d="M43.3337 37.666C43.3337 44.2927 43.3337 49.666 22.0003 49.666C0.666992 49.666 0.666992 44.2927 0.666992 37.666C0.666992 31.0393 10.219 25.666 22.0003 25.666C33.7817 25.666 43.3337 31.0393 43.3337 37.666Z" fill="url(#paint1_linear_2867_533)"/>
</g>
<defs>
<linearGradient id="paint0_linear_2867_533" x1="25.0158" y1="0.459666" x2="22.0007" y2="21.6663" gradientUnits="userSpaceOnUse">
<stop stop-color="#8BE1F5"/>
<stop offset="0.0001" stop-color="#ACEFFF"/>
<stop offset="1" stop-color="#42DBFF"/>
</linearGradient>
<linearGradient id="paint1_linear_2867_533" x1="28.0305" y1="25.8085" x2="26.0963" y2="49.9936" gradientUnits="userSpaceOnUse">
<stop stop-color="#8BE1F5"/>
<stop offset="0.0001" stop-color="#ACEFFF"/>
<stop offset="1" stop-color="#42DBFF"/>
</linearGradient>
<clipPath id="clip0_2867_533">
<rect width="44" height="50" fill="white"/>
</clipPath>
</defs>
</svg>
