<svg width="44" height="38" viewBox="0 0 44 38" fill="none" xmlns="http://www.w3.org/2000/svg">
<path d="M6.41667 21.458V27.3122C6.41667 28.833 7.25 30.2497 8.58333 30.9788L19 36.6663C20.25 37.3538 21.75 37.3538 23 36.6663L33.4167 30.9788C34.75 30.2497 35.5833 28.833 35.5833 27.3122V21.458L23 28.333C21.75 29.0205 20.25 29.0205 19 28.333L6.41667 21.458ZM19 1.33301L1.4375 10.9163C-2.98023e-08 11.708 -2.98023e-08 13.7913 1.4375 14.583L19 24.1663C20.25 24.8538 21.75 24.8538 23 24.1663L39.75 15.0205V27.333C39.75 28.4788 40.6875 29.4163 41.8333 29.4163C42.9792 29.4163 43.9167 28.4788 43.9167 27.333V13.9788C43.9167 13.208 43.5 12.5205 42.8333 12.1455L23 1.33301C22.3845 1.00473 21.6976 0.833008 21 0.833008C20.3024 0.833008 19.6155 1.00473 19 1.33301Z" fill="#F4F4F4"/>
</svg>
