<svg width="42" height="42" viewBox="0 0 42 42" fill="none" xmlns="http://www.w3.org/2000/svg">
<path d="M35.6872 6.22962C33.7772 4.30029 31.5021 2.77059 28.9948 1.72972C26.4874 0.688855 23.7978 0.157659 21.083 0.167116C9.70801 0.167116 0.437175 9.43795 0.437175 20.8129C0.437175 24.4588 1.39551 28.0004 3.18717 31.1254L0.270508 41.8338L11.208 38.9588C14.2288 40.6046 17.6247 41.4796 21.083 41.4796C32.458 41.4796 41.7288 32.2088 41.7288 20.8338C41.7288 15.3129 39.583 10.1254 35.6872 6.22962ZM21.083 37.9796C17.9997 37.9796 14.9788 37.1463 12.333 35.5838L11.708 35.2088L5.20801 36.9171L6.93717 30.5838L6.52051 29.938C4.80748 27.2025 3.89788 24.0405 3.89551 20.8129C3.89551 11.3546 11.6038 3.64628 21.0622 3.64628C25.6455 3.64628 29.958 5.43795 33.1872 8.68795C34.7861 10.2795 36.0532 12.1727 36.9151 14.2576C37.7769 16.3425 38.2164 18.5778 38.208 20.8338C38.2497 30.2921 30.5413 37.9796 21.083 37.9796ZM30.4997 25.1463C29.9788 24.8963 27.4372 23.6463 26.9788 23.4588C26.4997 23.2921 26.1663 23.2088 25.8122 23.7088C25.458 24.2296 24.4788 25.3963 24.1872 25.7296C23.8955 26.0838 23.583 26.1254 23.0622 25.8546C22.5413 25.6046 20.8747 25.0421 18.9163 23.2921C17.3747 21.9171 16.3538 20.2296 16.0413 19.7088C15.7497 19.1879 15.9997 18.9171 16.2705 18.6463C16.4997 18.4171 16.7913 18.0421 17.0413 17.7504C17.2913 17.4588 17.3955 17.2296 17.5622 16.8963C17.7288 16.5421 17.6455 16.2505 17.5205 16.0005C17.3955 15.7505 16.3538 13.2088 15.9372 12.1671C15.5205 11.1671 15.083 11.2921 14.7705 11.2713H13.7705C13.4163 11.2713 12.8747 11.3963 12.3955 11.9171C11.9372 12.4379 10.6038 13.6879 10.6038 16.2296C10.6038 18.7713 12.458 21.2296 12.708 21.5629C12.958 21.9171 16.3538 27.1254 21.5205 29.3546C22.7497 29.8963 23.708 30.2088 24.458 30.4379C25.6872 30.8338 26.8122 30.7713 27.708 30.6463C28.708 30.5004 30.7705 29.3963 31.1872 28.1879C31.6247 26.9796 31.6247 25.9588 31.4788 25.7296C31.333 25.5004 31.0205 25.3963 30.4997 25.1463Z" fill="#F4F4F4"/>
</svg>
