<svg width="27" height="28" viewBox="0 0 27 28" fill="none" xmlns="http://www.w3.org/2000/svg">
<path d="M13.5013 0.666992C20.8653 0.666992 26.8347 6.63633 26.8347 14.0003C26.8347 21.3643 20.8653 27.3337 13.5013 27.3337C11.145 27.3375 8.8302 26.7139 6.79465 25.527L0.173321 27.3337L1.97599 20.7097C0.788112 18.6735 0.164051 16.3577 0.167987 14.0003C0.167987 6.63633 6.13732 0.666992 13.5013 0.666992ZM8.95732 7.73366L8.69065 7.74433C8.51802 7.75484 8.34929 7.80019 8.19465 7.87766C8.05002 7.95957 7.91798 8.06196 7.80265 8.18166C7.64265 8.33233 7.55199 8.46299 7.45465 8.58966C6.96148 9.23086 6.69595 10.0181 6.69999 10.827C6.70265 11.4803 6.87332 12.1163 7.13999 12.711C7.68532 13.9137 8.58265 15.187 9.76665 16.367C10.052 16.651 10.332 16.9363 10.6333 17.2017C12.1045 18.4969 13.8577 19.431 15.7533 19.9297L16.5107 20.0457C16.7573 20.059 17.004 20.0403 17.252 20.0283C17.6403 20.0083 18.0195 19.9031 18.3627 19.7203C18.5373 19.6304 18.7077 19.5325 18.8733 19.427C18.8733 19.427 18.9307 19.3897 19.04 19.307C19.22 19.1737 19.3307 19.079 19.48 18.923C19.5907 18.8083 19.6867 18.6737 19.76 18.5203C19.864 18.303 19.968 17.8883 20.0107 17.543C20.0427 17.279 20.0333 17.135 20.0293 17.0457C20.024 16.903 19.9053 16.755 19.776 16.6923L19 16.3443C19 16.3443 17.84 15.839 17.1307 15.5163C17.0564 15.4839 16.9769 15.4654 16.896 15.4617C16.8048 15.4523 16.7126 15.4626 16.6257 15.4918C16.5387 15.521 16.4591 15.5684 16.392 15.631C16.3853 15.6283 16.296 15.7043 15.332 16.8723C15.2767 16.9467 15.2004 17.0029 15.1131 17.0337C15.0257 17.0646 14.9311 17.0688 14.8413 17.0457C14.7545 17.0224 14.6694 16.993 14.5867 16.9577C14.4213 16.8883 14.364 16.8617 14.2507 16.8137C13.4854 16.4797 12.7769 16.0285 12.1507 15.4763C11.9827 15.3297 11.8267 15.1697 11.6667 15.015C11.1421 14.5126 10.685 13.9443 10.3067 13.3243L10.228 13.1977C10.1715 13.1125 10.1258 13.0207 10.092 12.9243C10.0413 12.7283 10.1733 12.571 10.1733 12.571C10.1733 12.571 10.4973 12.2163 10.648 12.0243C10.7947 11.8377 10.9187 11.6563 10.9987 11.527C11.156 11.2737 11.2053 11.0137 11.1227 10.8123C10.7493 9.90033 10.3627 8.99233 9.96532 8.09099C9.88665 7.91233 9.65332 7.78433 9.44132 7.75899C9.36932 7.75099 9.29732 7.74299 9.22532 7.73766C9.04626 7.72876 8.86683 7.73054 8.68799 7.74299L8.95599 7.73233L8.95732 7.73366Z" fill="url(#paint0_linear_5220_2922)"/>
<defs>
<linearGradient id="paint0_linear_5220_2922" x1="17.2702" y1="0.825315" x2="13.5013" y2="27.3337" gradientUnits="userSpaceOnUse">
<stop stop-color="#8BE1F5"/>
<stop offset="0.0001" stop-color="#ACEFFF"/>
<stop offset="1" stop-color="#42DBFF"/>
</linearGradient>
</defs>
</svg>
